<svg xmlns="http://www.w3.org/2000/svg" width="21" height="23" viewBox="0 0 21 23"><g><g><g><g><path fill="#a9a9a9" d="M19.688 20.165a.448.448 0 0 1-.437.459H1.75a.45.45 0 0 1-.438-.459V3.863a.45.45 0 0 1 .438-.459h2.844v1.378c0 .381.294.689.657.689.362 0 .656-.308.656-.689V3.404h3.938v1.378c0 .381.294.689.657.689.361 0 .655-.308.655-.689V3.404h3.938v1.378c0 .381.293.689.656.689.362 0 .656-.308.656-.689V3.404h2.845c.241 0 .437.206.437.459v16.302zm-.437-18.139h-2.845V.649c0-.381-.294-.689-.656-.689-.363 0-.656.308-.656.689v1.377h-3.938V.649c0-.381-.294-.689-.655-.689-.363 0-.657.308-.657.689v1.377H5.906V.649c0-.381-.294-.689-.656-.689-.363 0-.657.308-.657.689v1.377H1.75C.784 2.026 0 2.848 0 3.863v16.302c0 1.015.784 1.836 1.75 1.836h17.501c.966 0 1.749-.821 1.749-1.836V3.863c0-1.015-.783-1.837-1.749-1.837z"/></g><g><path fill="#a9a9a9" d="M13.777 8.22h2.615v2.066h-2.615zm0 3.443h2.615v2.067h-2.615zm0 3.444h2.615v2.056h-2.615zM9.184 8.22h2.625v2.066H9.184zm0 3.443h2.625v2.067H9.184zm0 3.444h2.625v2.056H9.184zm-4.594 0h2.625v2.056H4.59zm0-3.444h2.625v2.067H4.59zm0-3.443h2.625v2.066H4.59z"/></g></g></g></g></svg>